# xmcd
#
# Track frame offsets:
#	150
#	14116
#	28986
#	43150
#	60525
#	78051
#	93475
#	103793
#	114991
#	133168
#	153502
#
# Disc length: 2185 seconds
#
# Revision: 0
# Processed by: cddbd v1.5.1PL2 Copyright (c) Steve Scherf et al.
# Submitted via: EasyCDDAExtractor 9.0.0.1
#
DISCID=9108870b
DTITLE=Various Artist - CDX Volume 385
DYEAR=2005
DGENRE=Country
TTITLE0=Jeff Bates - No Shame
TTITLE1=Jo Dee Messina - Not Goin' Down
TTITLE2=Neal McCoy - The Last Of A Dying Breed
TTITLE3=Neal McCoy General Tommy Franks - The Last Of A Dying Breed
TTITLE4=Bon Jovi Jennifer Nettles - Who Says You Can't Go Home
TTITLE5=Robert Bacon - Drinkin' Thinkin'
TTITLE6=Jerry Jaye - redneck rock
TTITLE7=Narvel Felts - Little Drummer Boy
TTITLE8=Geno Bush - Afraid
TTITLE9=Scarlett - There's Nothin' Here For Me
TTITLE10=Bob Wooton Tennessee Three - You Walked Tall
EXTD=
EXTT0=
EXTT1=
EXTT2=
EXTT3=
EXTT4=
EXTT5=
EXTT6=
EXTT7=
EXTT8=
EXTT9=
EXTT10=
PLAYORDER=
